# xmcd
#
# Track frame offsets:
#	150
#	14272
#	26835
#	44300
#	59142
#	69675
#	81682
#	97127
#	112115
#	123872
#	132352
#	146630
#	170912
#	179742
#	191265
#	206497
#	219530
#	234232
#	245515
#	256745
#
# Disc length: 3577
#
# Revision: 1
# Processed by: cddbd v1.5.1PL0 Copyright (c) Steve Scherf et al.
# Submitted via: EasyCDDAExtractor 8.0.2.1
# Normalized: r0:DSETVAR1
#
DISCID=390df714
DTITLE=Various Artist - Vive La Chanson - Franse Wereldsuccessen CD 2
DYEAR=2002
DGENRE=Chanson
TTITLE0=Celine Dion - Ne Partez Pas Sans Moi
TTITLE1=Yves Montand - La Chasonnette
TTITLE2=Mireille Mathieu - La Paloma Adieu
TTITLE3=Michel Fugian - Une Belle Histoire
TTITLE4=Marie Laforet - La Tendresse
TTITLE5=Philippe Elan - Il Est Cinq Heures, Paris S'veille
TTITLE6=Nana Mouskouri - La Derniere Rose De L'ete
TTITLE7=Gerard Lenorman - La Ballade Des Gens Heures
TTITLE8=Liesbeth List - Non, je ne Regrette Rien
TTITLE9=Henri Salvador - Maladie d'Amour
TTITLE10=Les Poppys - Non, Non, Rien n'A Change
TTITLE11=Mort Shuman - Le Lac Majeur
TTITLE12=Barbara - Une petite Cantate
TTITLE13=Georges Moustaki - Le Meteque
TTITLE14=Lenny Kuhr - Les Enfants
TTITLE15=Serge Lama - Je t'Aime a La Folie
TTITLE16=Juliette Greco - Il n'y a plus d'apres
TTITLE17=Francis Lai and Nicole Croisille - Un Homme Et Une Femme
TTITLE18=Henri Salvador - L'abeille et le Papillon
TTITLE19=Frida Broccara - Les Moulins de Mon Coeur
EXTD=
EXTT0=
EXTT1=
EXTT2=
EXTT3=
EXTT4=
EXTT5=
EXTT6=
EXTT7=
EXTT8=
EXTT9=
EXTT10=
EXTT11=
EXTT12=
EXTT13=
EXTT14=
EXTT15=
EXTT16=
EXTT17=
EXTT18=
EXTT19=
PLAYORDER=
